G04 EAGLE Gerber RS-274X export*
G75*
%MOMM*%
%FSLAX34Y34*%
%LPD*%
%IN*%
%IPPOS*%
%AMOC8*
5,1,8,0,0,1.08239X$1,22.5*%
G01*
%ADD10C,0.254000*%


D10*
X20000Y100000D02*
X480000Y100000D01*
X480000Y840000D01*
X20000Y840000D01*
X20000Y100000D01*
X119300Y466500D02*
X129300Y466500D01*
X129300Y494500D01*
X119300Y494500D01*
X119300Y466500D01*
X180300Y464000D02*
X190300Y464000D01*
X190300Y497000D01*
X180300Y497000D01*
X180300Y464000D01*
X140300Y427500D02*
X168300Y427500D01*
X168300Y437500D01*
X140300Y437500D01*
X140300Y427500D01*
X281110Y789120D02*
X281039Y788041D01*
X280898Y786969D01*
X280687Y785909D01*
X280408Y784865D01*
X280060Y783841D01*
X279646Y782843D01*
X279168Y781873D01*
X278628Y780937D01*
X278027Y780038D01*
X277369Y779181D01*
X276657Y778368D01*
X275892Y777604D01*
X275079Y776891D01*
X274222Y776233D01*
X273323Y775632D01*
X272387Y775092D01*
X271417Y774614D01*
X270419Y774200D01*
X269395Y773852D01*
X268351Y773573D01*
X267291Y773362D01*
X266219Y773221D01*
X265140Y773150D01*
X264060Y773150D01*
X262981Y773221D01*
X261909Y773362D01*
X260849Y773573D01*
X259805Y773852D01*
X258781Y774200D01*
X257783Y774614D01*
X256813Y775092D01*
X255877Y775632D01*
X254978Y776233D01*
X254121Y776891D01*
X253308Y777604D01*
X252544Y778368D01*
X251831Y779181D01*
X251173Y780038D01*
X250572Y780937D01*
X250032Y781873D01*
X249554Y782843D01*
X249140Y783841D01*
X248792Y784865D01*
X248513Y785909D01*
X248302Y786969D01*
X248161Y788041D01*
X248090Y789120D01*
X248090Y790200D01*
X248161Y791279D01*
X248302Y792351D01*
X248513Y793411D01*
X248792Y794455D01*
X249140Y795479D01*
X249554Y796477D01*
X250032Y797447D01*
X250572Y798383D01*
X251173Y799282D01*
X251831Y800139D01*
X252544Y800952D01*
X253308Y801717D01*
X254121Y802429D01*
X254978Y803087D01*
X255877Y803688D01*
X256813Y804228D01*
X257783Y804706D01*
X258781Y805120D01*
X259805Y805468D01*
X260849Y805747D01*
X261909Y805958D01*
X262981Y806099D01*
X264060Y806170D01*
X265140Y806170D01*
X266219Y806099D01*
X267291Y805958D01*
X268351Y805747D01*
X269395Y805468D01*
X270419Y805120D01*
X271417Y804706D01*
X272387Y804228D01*
X273323Y803688D01*
X274222Y803087D01*
X275079Y802429D01*
X275892Y801717D01*
X276657Y800952D01*
X277369Y800139D01*
X278027Y799282D01*
X278628Y798383D01*
X279168Y797447D01*
X279646Y796477D01*
X280060Y795479D01*
X280408Y794455D01*
X280687Y793411D01*
X280898Y792351D01*
X281039Y791279D01*
X281110Y790200D01*
X281110Y789120D01*
M02*
