G04 EAGLE Gerber RS-274X export*
G75*
%MOMM*%
%FSLAX34Y34*%
%LPD*%
%INSilkscreen Top*%
%IPPOS*%
%AMOC8*
5,1,8,0,0,1.08239X$1,22.5*%
G01*
%ADD10C,0.152400*%
%ADD11R,0.635000X2.540000*%
%ADD12C,0.177800*%
%ADD13C,0.101600*%
%ADD14R,0.508000X2.540000*%
%ADD15R,1.905000X0.762000*%
%ADD16C,0.127000*%
%ADD17C,0.203200*%
%ADD18C,0.050800*%
%ADD19R,0.762000X0.635000*%
%ADD20R,1.270000X2.794000*%
%ADD21R,0.200000X0.200000*%


D10*
X270270Y426200D02*
X272810Y426200D01*
X272810Y413500D01*
X279160Y413500D01*
X279160Y438900D01*
X272810Y438900D01*
X272810Y426200D01*
X288050Y426200D02*
X293130Y426200D01*
X237250Y426200D02*
X224550Y426200D01*
X230900Y419850D02*
X230900Y432550D01*
X211850Y426200D02*
X211871Y427914D01*
X211934Y429627D01*
X212039Y431338D01*
X212186Y433046D01*
X212375Y434750D01*
X212606Y436449D01*
X212878Y438142D01*
X213192Y439827D01*
X213547Y441504D01*
X213943Y443172D01*
X214380Y444830D01*
X214858Y446476D01*
X215375Y448111D01*
X215933Y449732D01*
X216530Y451339D01*
X217167Y452930D01*
X217842Y454506D01*
X218556Y456065D01*
X219308Y457605D01*
X220098Y459127D01*
X220924Y460629D01*
X221788Y462110D01*
X222687Y463570D01*
X223622Y465007D01*
X224592Y466420D01*
X225596Y467810D01*
X226634Y469174D01*
X227705Y470512D01*
X228809Y471824D01*
X229945Y473108D01*
X231111Y474364D01*
X232309Y475591D01*
X233536Y476789D01*
X234792Y477955D01*
X236076Y479091D01*
X237388Y480195D01*
X238726Y481266D01*
X240090Y482304D01*
X241480Y483308D01*
X242893Y484278D01*
X244330Y485213D01*
X245790Y486112D01*
X247271Y486976D01*
X248773Y487802D01*
X250295Y488592D01*
X251835Y489344D01*
X253394Y490058D01*
X254970Y490733D01*
X256561Y491370D01*
X258168Y491967D01*
X259789Y492525D01*
X261424Y493042D01*
X263070Y493520D01*
X264728Y493957D01*
X266396Y494353D01*
X268073Y494708D01*
X269758Y495022D01*
X271451Y495294D01*
X273150Y495525D01*
X274854Y495714D01*
X276562Y495861D01*
X278273Y495966D01*
X279986Y496029D01*
X281700Y496050D01*
X283414Y496029D01*
X285127Y495966D01*
X286838Y495861D01*
X288546Y495714D01*
X290250Y495525D01*
X291949Y495294D01*
X293642Y495022D01*
X295327Y494708D01*
X297004Y494353D01*
X298672Y493957D01*
X300330Y493520D01*
X301976Y493042D01*
X303611Y492525D01*
X305232Y491967D01*
X306839Y491370D01*
X308430Y490733D01*
X310006Y490058D01*
X311565Y489344D01*
X313105Y488592D01*
X314627Y487802D01*
X316129Y486976D01*
X317610Y486112D01*
X319070Y485213D01*
X320507Y484278D01*
X321920Y483308D01*
X323310Y482304D01*
X324674Y481266D01*
X326012Y480195D01*
X327324Y479091D01*
X328608Y477955D01*
X329864Y476789D01*
X331091Y475591D01*
X332289Y474364D01*
X333455Y473108D01*
X334591Y471824D01*
X335695Y470512D01*
X336766Y469174D01*
X337804Y467810D01*
X338808Y466420D01*
X339778Y465007D01*
X340713Y463570D01*
X341612Y462110D01*
X342476Y460629D01*
X343302Y459127D01*
X344092Y457605D01*
X344844Y456065D01*
X345558Y454506D01*
X346233Y452930D01*
X346870Y451339D01*
X347467Y449732D01*
X348025Y448111D01*
X348542Y446476D01*
X349020Y444830D01*
X349457Y443172D01*
X349853Y441504D01*
X350208Y439827D01*
X350522Y438142D01*
X350794Y436449D01*
X351025Y434750D01*
X351214Y433046D01*
X351361Y431338D01*
X351466Y429627D01*
X351529Y427914D01*
X351550Y426200D01*
X351529Y424486D01*
X351466Y422773D01*
X351361Y421062D01*
X351214Y419354D01*
X351025Y417650D01*
X350794Y415951D01*
X350522Y414258D01*
X350208Y412573D01*
X349853Y410896D01*
X349457Y409228D01*
X349020Y407570D01*
X348542Y405924D01*
X348025Y404289D01*
X347467Y402668D01*
X346870Y401061D01*
X346233Y399470D01*
X345558Y397894D01*
X344844Y396335D01*
X344092Y394795D01*
X343302Y393273D01*
X342476Y391771D01*
X341612Y390290D01*
X340713Y388830D01*
X339778Y387393D01*
X338808Y385980D01*
X337804Y384590D01*
X336766Y383226D01*
X335695Y381888D01*
X334591Y380576D01*
X333455Y379292D01*
X332289Y378036D01*
X331091Y376809D01*
X329864Y375611D01*
X328608Y374445D01*
X327324Y373309D01*
X326012Y372205D01*
X324674Y371134D01*
X323310Y370096D01*
X321920Y369092D01*
X320507Y368122D01*
X319070Y367187D01*
X317610Y366288D01*
X316129Y365424D01*
X314627Y364598D01*
X313105Y363808D01*
X311565Y363056D01*
X310006Y362342D01*
X308430Y361667D01*
X306839Y361030D01*
X305232Y360433D01*
X303611Y359875D01*
X301976Y359358D01*
X300330Y358880D01*
X298672Y358443D01*
X297004Y358047D01*
X295327Y357692D01*
X293642Y357378D01*
X291949Y357106D01*
X290250Y356875D01*
X288546Y356686D01*
X286838Y356539D01*
X285127Y356434D01*
X283414Y356371D01*
X281700Y356350D01*
X279986Y356371D01*
X278273Y356434D01*
X276562Y356539D01*
X274854Y356686D01*
X273150Y356875D01*
X271451Y357106D01*
X269758Y357378D01*
X268073Y357692D01*
X266396Y358047D01*
X264728Y358443D01*
X263070Y358880D01*
X261424Y359358D01*
X259789Y359875D01*
X258168Y360433D01*
X256561Y361030D01*
X254970Y361667D01*
X253394Y362342D01*
X251835Y363056D01*
X250295Y363808D01*
X248773Y364598D01*
X247271Y365424D01*
X245790Y366288D01*
X244330Y367187D01*
X242893Y368122D01*
X241480Y369092D01*
X240090Y370096D01*
X238726Y371134D01*
X237388Y372205D01*
X236076Y373309D01*
X234792Y374445D01*
X233536Y375611D01*
X232309Y376809D01*
X231111Y378036D01*
X229945Y379292D01*
X228809Y380576D01*
X227705Y381888D01*
X226634Y383226D01*
X225596Y384590D01*
X224592Y385980D01*
X223622Y387393D01*
X222687Y388830D01*
X221788Y390290D01*
X220924Y391771D01*
X220098Y393273D01*
X219308Y394795D01*
X218556Y396335D01*
X217842Y397894D01*
X217167Y399470D01*
X216530Y401061D01*
X215933Y402668D01*
X215375Y404289D01*
X214858Y405924D01*
X214380Y407570D01*
X213943Y409228D01*
X213547Y410896D01*
X213192Y412573D01*
X212878Y414258D01*
X212606Y415951D01*
X212375Y417650D01*
X212186Y419354D01*
X212039Y421062D01*
X211934Y422773D01*
X211871Y424486D01*
X211850Y426200D01*
D11*
X287415Y426200D03*
D12*
X349899Y468237D02*
X353455Y468237D01*
X349899Y468237D02*
X349783Y468239D01*
X349666Y468245D01*
X349550Y468254D01*
X349435Y468267D01*
X349320Y468284D01*
X349205Y468305D01*
X349092Y468330D01*
X348979Y468358D01*
X348867Y468390D01*
X348756Y468426D01*
X348646Y468465D01*
X348538Y468508D01*
X348431Y468554D01*
X348326Y468604D01*
X348223Y468657D01*
X348121Y468713D01*
X348021Y468773D01*
X347923Y468836D01*
X347828Y468903D01*
X347734Y468972D01*
X347643Y469044D01*
X347554Y469119D01*
X347468Y469198D01*
X347385Y469279D01*
X347304Y469362D01*
X347225Y469448D01*
X347150Y469537D01*
X347078Y469628D01*
X347009Y469722D01*
X346942Y469817D01*
X346879Y469915D01*
X346819Y470015D01*
X346763Y470117D01*
X346710Y470220D01*
X346660Y470325D01*
X346614Y470432D01*
X346571Y470540D01*
X346532Y470650D01*
X346496Y470761D01*
X346464Y470873D01*
X346436Y470986D01*
X346411Y471099D01*
X346390Y471214D01*
X346373Y471329D01*
X346360Y471444D01*
X346351Y471560D01*
X346345Y471677D01*
X346343Y471793D01*
X346343Y480683D01*
X346345Y480799D01*
X346351Y480916D01*
X346360Y481032D01*
X346373Y481147D01*
X346390Y481262D01*
X346411Y481377D01*
X346436Y481490D01*
X346464Y481603D01*
X346496Y481715D01*
X346532Y481826D01*
X346571Y481936D01*
X346614Y482044D01*
X346660Y482151D01*
X346710Y482256D01*
X346763Y482359D01*
X346819Y482461D01*
X346879Y482561D01*
X346942Y482659D01*
X347009Y482754D01*
X347078Y482848D01*
X347150Y482939D01*
X347225Y483028D01*
X347304Y483114D01*
X347385Y483197D01*
X347468Y483278D01*
X347554Y483357D01*
X347643Y483432D01*
X347734Y483504D01*
X347828Y483573D01*
X347923Y483640D01*
X348021Y483703D01*
X348121Y483763D01*
X348223Y483819D01*
X348326Y483872D01*
X348431Y483922D01*
X348538Y483968D01*
X348646Y484011D01*
X348756Y484050D01*
X348867Y484086D01*
X348979Y484118D01*
X349092Y484146D01*
X349205Y484171D01*
X349320Y484192D01*
X349435Y484209D01*
X349550Y484222D01*
X349666Y484231D01*
X349783Y484237D01*
X349899Y484239D01*
X353455Y484239D01*
X359413Y480683D02*
X363858Y484239D01*
X363858Y468237D01*
X359413Y468237D02*
X368303Y468237D01*
D13*
X432604Y469608D02*
X435201Y469608D01*
X432604Y469608D02*
X432505Y469610D01*
X432405Y469616D01*
X432306Y469625D01*
X432208Y469638D01*
X432110Y469655D01*
X432012Y469676D01*
X431916Y469701D01*
X431821Y469729D01*
X431727Y469761D01*
X431634Y469796D01*
X431542Y469835D01*
X431452Y469878D01*
X431364Y469923D01*
X431277Y469973D01*
X431193Y470025D01*
X431110Y470081D01*
X431030Y470139D01*
X430952Y470201D01*
X430877Y470266D01*
X430804Y470334D01*
X430734Y470404D01*
X430666Y470477D01*
X430601Y470552D01*
X430539Y470630D01*
X430481Y470710D01*
X430425Y470793D01*
X430373Y470877D01*
X430323Y470964D01*
X430278Y471052D01*
X430235Y471142D01*
X430196Y471234D01*
X430161Y471327D01*
X430129Y471421D01*
X430101Y471516D01*
X430076Y471612D01*
X430055Y471710D01*
X430038Y471808D01*
X430025Y471906D01*
X430016Y472005D01*
X430010Y472105D01*
X430008Y472204D01*
X430008Y478696D01*
X430010Y478795D01*
X430016Y478895D01*
X430025Y478994D01*
X430038Y479092D01*
X430055Y479190D01*
X430076Y479288D01*
X430101Y479384D01*
X430129Y479479D01*
X430161Y479573D01*
X430196Y479666D01*
X430235Y479758D01*
X430278Y479848D01*
X430323Y479936D01*
X430373Y480023D01*
X430425Y480107D01*
X430481Y480190D01*
X430539Y480270D01*
X430601Y480348D01*
X430666Y480423D01*
X430734Y480496D01*
X430804Y480566D01*
X430877Y480634D01*
X430952Y480699D01*
X431030Y480761D01*
X431110Y480819D01*
X431193Y480875D01*
X431277Y480927D01*
X431364Y480977D01*
X431452Y481022D01*
X431542Y481065D01*
X431634Y481104D01*
X431726Y481139D01*
X431821Y481171D01*
X431916Y481199D01*
X432012Y481224D01*
X432110Y481245D01*
X432208Y481262D01*
X432306Y481275D01*
X432405Y481284D01*
X432505Y481290D01*
X432604Y481292D01*
X435201Y481292D01*
X443136Y481292D02*
X443243Y481290D01*
X443349Y481284D01*
X443455Y481274D01*
X443561Y481261D01*
X443667Y481243D01*
X443771Y481222D01*
X443875Y481197D01*
X443978Y481168D01*
X444079Y481136D01*
X444179Y481099D01*
X444278Y481059D01*
X444376Y481016D01*
X444472Y480969D01*
X444566Y480918D01*
X444658Y480864D01*
X444748Y480807D01*
X444836Y480747D01*
X444921Y480683D01*
X445004Y480616D01*
X445085Y480546D01*
X445163Y480474D01*
X445239Y480398D01*
X445311Y480320D01*
X445381Y480239D01*
X445448Y480156D01*
X445512Y480071D01*
X445572Y479983D01*
X445629Y479893D01*
X445683Y479801D01*
X445734Y479707D01*
X445781Y479611D01*
X445824Y479513D01*
X445864Y479414D01*
X445901Y479314D01*
X445933Y479213D01*
X445962Y479110D01*
X445987Y479006D01*
X446008Y478902D01*
X446026Y478796D01*
X446039Y478690D01*
X446049Y478584D01*
X446055Y478478D01*
X446057Y478371D01*
X443136Y481292D02*
X443015Y481290D01*
X442894Y481284D01*
X442774Y481274D01*
X442653Y481261D01*
X442534Y481243D01*
X442414Y481222D01*
X442296Y481197D01*
X442179Y481168D01*
X442062Y481135D01*
X441947Y481099D01*
X441833Y481058D01*
X441720Y481015D01*
X441608Y480967D01*
X441499Y480916D01*
X441391Y480861D01*
X441284Y480803D01*
X441180Y480742D01*
X441078Y480677D01*
X440978Y480609D01*
X440880Y480538D01*
X440784Y480464D01*
X440691Y480387D01*
X440601Y480306D01*
X440513Y480223D01*
X440428Y480137D01*
X440345Y480048D01*
X440266Y479957D01*
X440189Y479863D01*
X440116Y479767D01*
X440046Y479669D01*
X439979Y479568D01*
X439915Y479465D01*
X439855Y479360D01*
X439798Y479253D01*
X439744Y479145D01*
X439694Y479035D01*
X439648Y478923D01*
X439605Y478810D01*
X439566Y478695D01*
X445084Y476099D02*
X445163Y476176D01*
X445239Y476257D01*
X445312Y476340D01*
X445382Y476425D01*
X445449Y476513D01*
X445513Y476603D01*
X445573Y476695D01*
X445630Y476790D01*
X445684Y476886D01*
X445735Y476984D01*
X445782Y477084D01*
X445826Y477186D01*
X445866Y477289D01*
X445902Y477393D01*
X445934Y477499D01*
X445963Y477605D01*
X445988Y477713D01*
X446010Y477821D01*
X446027Y477931D01*
X446041Y478040D01*
X446050Y478150D01*
X446056Y478261D01*
X446058Y478371D01*
X445084Y476099D02*
X439566Y469608D01*
X446057Y469608D01*
X431701Y429608D02*
X429104Y429608D01*
X429005Y429610D01*
X428905Y429616D01*
X428806Y429625D01*
X428708Y429638D01*
X428610Y429655D01*
X428512Y429676D01*
X428416Y429701D01*
X428321Y429729D01*
X428227Y429761D01*
X428134Y429796D01*
X428042Y429835D01*
X427952Y429878D01*
X427864Y429923D01*
X427777Y429973D01*
X427693Y430025D01*
X427610Y430081D01*
X427530Y430139D01*
X427452Y430201D01*
X427377Y430266D01*
X427304Y430334D01*
X427234Y430404D01*
X427166Y430477D01*
X427101Y430552D01*
X427039Y430630D01*
X426981Y430710D01*
X426925Y430793D01*
X426873Y430877D01*
X426823Y430964D01*
X426778Y431052D01*
X426735Y431142D01*
X426696Y431234D01*
X426661Y431327D01*
X426629Y431421D01*
X426601Y431516D01*
X426576Y431612D01*
X426555Y431710D01*
X426538Y431808D01*
X426525Y431906D01*
X426516Y432005D01*
X426510Y432105D01*
X426508Y432204D01*
X426508Y438696D01*
X426510Y438795D01*
X426516Y438895D01*
X426525Y438994D01*
X426538Y439092D01*
X426555Y439190D01*
X426576Y439288D01*
X426601Y439384D01*
X426629Y439479D01*
X426661Y439573D01*
X426696Y439666D01*
X426735Y439758D01*
X426778Y439848D01*
X426823Y439936D01*
X426873Y440023D01*
X426925Y440107D01*
X426981Y440190D01*
X427039Y440270D01*
X427101Y440348D01*
X427166Y440423D01*
X427234Y440496D01*
X427304Y440566D01*
X427377Y440634D01*
X427452Y440699D01*
X427530Y440761D01*
X427610Y440819D01*
X427693Y440875D01*
X427777Y440927D01*
X427864Y440977D01*
X427952Y441022D01*
X428042Y441065D01*
X428134Y441104D01*
X428226Y441139D01*
X428321Y441171D01*
X428416Y441199D01*
X428512Y441224D01*
X428610Y441245D01*
X428708Y441262D01*
X428806Y441275D01*
X428905Y441284D01*
X429005Y441290D01*
X429104Y441292D01*
X431701Y441292D01*
X436066Y429608D02*
X439312Y429608D01*
X439425Y429610D01*
X439538Y429616D01*
X439651Y429626D01*
X439764Y429640D01*
X439876Y429657D01*
X439987Y429679D01*
X440097Y429704D01*
X440207Y429734D01*
X440315Y429767D01*
X440422Y429804D01*
X440528Y429844D01*
X440632Y429889D01*
X440735Y429937D01*
X440836Y429988D01*
X440935Y430043D01*
X441032Y430101D01*
X441127Y430163D01*
X441220Y430228D01*
X441310Y430296D01*
X441398Y430367D01*
X441484Y430442D01*
X441567Y430519D01*
X441647Y430599D01*
X441724Y430682D01*
X441799Y430768D01*
X441870Y430856D01*
X441938Y430946D01*
X442003Y431039D01*
X442065Y431134D01*
X442123Y431231D01*
X442178Y431330D01*
X442229Y431431D01*
X442277Y431534D01*
X442322Y431638D01*
X442362Y431744D01*
X442399Y431851D01*
X442432Y431959D01*
X442462Y432069D01*
X442487Y432179D01*
X442509Y432290D01*
X442526Y432402D01*
X442540Y432515D01*
X442550Y432628D01*
X442556Y432741D01*
X442558Y432854D01*
X442556Y432967D01*
X442550Y433080D01*
X442540Y433193D01*
X442526Y433306D01*
X442509Y433418D01*
X442487Y433529D01*
X442462Y433639D01*
X442432Y433749D01*
X442399Y433857D01*
X442362Y433964D01*
X442322Y434070D01*
X442277Y434174D01*
X442229Y434277D01*
X442178Y434378D01*
X442123Y434477D01*
X442065Y434574D01*
X442003Y434669D01*
X441938Y434762D01*
X441870Y434852D01*
X441799Y434940D01*
X441724Y435026D01*
X441647Y435109D01*
X441567Y435189D01*
X441484Y435266D01*
X441398Y435341D01*
X441310Y435412D01*
X441220Y435480D01*
X441127Y435545D01*
X441032Y435607D01*
X440935Y435665D01*
X440836Y435720D01*
X440735Y435771D01*
X440632Y435819D01*
X440528Y435864D01*
X440422Y435904D01*
X440315Y435941D01*
X440207Y435974D01*
X440097Y436004D01*
X439987Y436029D01*
X439876Y436051D01*
X439764Y436068D01*
X439651Y436082D01*
X439538Y436092D01*
X439425Y436098D01*
X439312Y436100D01*
X439961Y441292D02*
X436066Y441292D01*
X439961Y441292D02*
X440062Y441290D01*
X440162Y441284D01*
X440262Y441274D01*
X440362Y441261D01*
X440461Y441243D01*
X440560Y441222D01*
X440657Y441197D01*
X440754Y441168D01*
X440849Y441135D01*
X440943Y441099D01*
X441035Y441059D01*
X441126Y441016D01*
X441215Y440969D01*
X441302Y440919D01*
X441388Y440865D01*
X441471Y440808D01*
X441551Y440748D01*
X441630Y440685D01*
X441706Y440618D01*
X441779Y440549D01*
X441849Y440477D01*
X441917Y440403D01*
X441982Y440326D01*
X442043Y440246D01*
X442102Y440164D01*
X442157Y440080D01*
X442209Y439994D01*
X442258Y439906D01*
X442303Y439816D01*
X442345Y439724D01*
X442383Y439631D01*
X442417Y439536D01*
X442448Y439441D01*
X442475Y439344D01*
X442498Y439246D01*
X442518Y439147D01*
X442533Y439047D01*
X442545Y438947D01*
X442553Y438847D01*
X442557Y438746D01*
X442557Y438646D01*
X442553Y438545D01*
X442545Y438445D01*
X442533Y438345D01*
X442518Y438245D01*
X442498Y438146D01*
X442475Y438048D01*
X442448Y437951D01*
X442417Y437856D01*
X442383Y437761D01*
X442345Y437668D01*
X442303Y437576D01*
X442258Y437486D01*
X442209Y437398D01*
X442157Y437312D01*
X442102Y437228D01*
X442043Y437146D01*
X441982Y437066D01*
X441917Y436989D01*
X441849Y436915D01*
X441779Y436843D01*
X441706Y436774D01*
X441630Y436707D01*
X441551Y436644D01*
X441471Y436584D01*
X441388Y436527D01*
X441302Y436473D01*
X441215Y436423D01*
X441126Y436376D01*
X441035Y436333D01*
X440943Y436293D01*
X440849Y436257D01*
X440754Y436224D01*
X440657Y436195D01*
X440560Y436170D01*
X440461Y436149D01*
X440362Y436131D01*
X440262Y436118D01*
X440162Y436108D01*
X440062Y436102D01*
X439961Y436100D01*
X439961Y436099D02*
X437364Y436099D01*
X418201Y379608D02*
X415604Y379608D01*
X415505Y379610D01*
X415405Y379616D01*
X415306Y379625D01*
X415208Y379638D01*
X415110Y379655D01*
X415012Y379676D01*
X414916Y379701D01*
X414821Y379729D01*
X414727Y379761D01*
X414634Y379796D01*
X414542Y379835D01*
X414452Y379878D01*
X414364Y379923D01*
X414277Y379973D01*
X414193Y380025D01*
X414110Y380081D01*
X414030Y380139D01*
X413952Y380201D01*
X413877Y380266D01*
X413804Y380334D01*
X413734Y380404D01*
X413666Y380477D01*
X413601Y380552D01*
X413539Y380630D01*
X413481Y380710D01*
X413425Y380793D01*
X413373Y380877D01*
X413323Y380964D01*
X413278Y381052D01*
X413235Y381142D01*
X413196Y381234D01*
X413161Y381327D01*
X413129Y381421D01*
X413101Y381516D01*
X413076Y381612D01*
X413055Y381710D01*
X413038Y381808D01*
X413025Y381906D01*
X413016Y382005D01*
X413010Y382105D01*
X413008Y382204D01*
X413008Y388696D01*
X413010Y388795D01*
X413016Y388895D01*
X413025Y388994D01*
X413038Y389092D01*
X413055Y389190D01*
X413076Y389288D01*
X413101Y389384D01*
X413129Y389479D01*
X413161Y389573D01*
X413196Y389666D01*
X413235Y389758D01*
X413278Y389848D01*
X413323Y389936D01*
X413373Y390023D01*
X413425Y390107D01*
X413481Y390190D01*
X413539Y390270D01*
X413601Y390348D01*
X413666Y390423D01*
X413734Y390496D01*
X413804Y390566D01*
X413877Y390634D01*
X413952Y390699D01*
X414030Y390761D01*
X414110Y390819D01*
X414193Y390875D01*
X414277Y390927D01*
X414364Y390977D01*
X414452Y391022D01*
X414542Y391065D01*
X414634Y391104D01*
X414726Y391139D01*
X414821Y391171D01*
X414916Y391199D01*
X415012Y391224D01*
X415110Y391245D01*
X415208Y391262D01*
X415306Y391275D01*
X415405Y391284D01*
X415505Y391290D01*
X415604Y391292D01*
X418201Y391292D01*
X425163Y391292D02*
X422566Y382204D01*
X429057Y382204D01*
X427110Y384801D02*
X427110Y379608D01*
D10*
X162020Y235900D02*
X121380Y235900D01*
X162020Y235900D02*
X162020Y261300D01*
X121380Y261300D01*
X121380Y235900D01*
X135350Y248600D02*
X141700Y248600D01*
X151860Y254950D02*
X151860Y242250D01*
X141700Y248600D01*
X156940Y248600D01*
X151860Y254950D02*
X141700Y248600D01*
X141700Y254950D01*
X141700Y248600D02*
X141700Y242250D01*
D14*
X127730Y248600D03*
D15*
X171545Y248600D03*
X111855Y248600D03*
D16*
X122015Y265745D02*
X122015Y277175D01*
X125190Y277175D01*
X125301Y277173D01*
X125411Y277167D01*
X125522Y277158D01*
X125632Y277144D01*
X125741Y277127D01*
X125850Y277106D01*
X125958Y277081D01*
X126065Y277052D01*
X126171Y277020D01*
X126276Y276984D01*
X126379Y276944D01*
X126481Y276901D01*
X126582Y276854D01*
X126681Y276803D01*
X126778Y276750D01*
X126872Y276693D01*
X126965Y276632D01*
X127056Y276569D01*
X127145Y276502D01*
X127231Y276432D01*
X127314Y276359D01*
X127396Y276284D01*
X127474Y276206D01*
X127549Y276124D01*
X127622Y276041D01*
X127692Y275955D01*
X127759Y275866D01*
X127822Y275775D01*
X127883Y275682D01*
X127940Y275588D01*
X127993Y275491D01*
X128044Y275392D01*
X128091Y275291D01*
X128134Y275189D01*
X128174Y275086D01*
X128210Y274981D01*
X128242Y274875D01*
X128271Y274768D01*
X128296Y274660D01*
X128317Y274551D01*
X128334Y274442D01*
X128348Y274332D01*
X128357Y274221D01*
X128363Y274111D01*
X128365Y274000D01*
X128365Y268920D01*
X128363Y268809D01*
X128357Y268699D01*
X128348Y268588D01*
X128334Y268478D01*
X128317Y268369D01*
X128296Y268260D01*
X128271Y268152D01*
X128242Y268045D01*
X128210Y267939D01*
X128174Y267834D01*
X128134Y267731D01*
X128091Y267629D01*
X128044Y267528D01*
X127993Y267429D01*
X127940Y267332D01*
X127883Y267238D01*
X127822Y267145D01*
X127759Y267054D01*
X127692Y266965D01*
X127622Y266879D01*
X127549Y266796D01*
X127474Y266714D01*
X127396Y266636D01*
X127314Y266561D01*
X127231Y266488D01*
X127145Y266418D01*
X127056Y266351D01*
X126965Y266288D01*
X126872Y266227D01*
X126777Y266170D01*
X126681Y266117D01*
X126582Y266066D01*
X126481Y266019D01*
X126379Y265976D01*
X126276Y265936D01*
X126171Y265900D01*
X126065Y265868D01*
X125958Y265839D01*
X125850Y265814D01*
X125741Y265793D01*
X125632Y265776D01*
X125522Y265762D01*
X125411Y265753D01*
X125301Y265747D01*
X125190Y265745D01*
X122015Y265745D01*
X133826Y274635D02*
X137001Y277175D01*
X137001Y265745D01*
X133826Y265745D02*
X140176Y265745D01*
D10*
X259180Y237500D02*
X299820Y237500D01*
X299820Y262900D01*
X259180Y262900D01*
X259180Y237500D01*
X273150Y250200D02*
X279500Y250200D01*
X289660Y256550D02*
X289660Y243850D01*
X279500Y250200D01*
X294740Y250200D01*
X289660Y256550D02*
X279500Y250200D01*
X279500Y256550D01*
X279500Y250200D02*
X279500Y243850D01*
D14*
X265530Y250200D03*
D15*
X309345Y250200D03*
X249655Y250200D03*
D16*
X259815Y267345D02*
X259815Y278775D01*
X262990Y278775D01*
X263101Y278773D01*
X263211Y278767D01*
X263322Y278758D01*
X263432Y278744D01*
X263541Y278727D01*
X263650Y278706D01*
X263758Y278681D01*
X263865Y278652D01*
X263971Y278620D01*
X264076Y278584D01*
X264179Y278544D01*
X264281Y278501D01*
X264382Y278454D01*
X264481Y278403D01*
X264578Y278350D01*
X264672Y278293D01*
X264765Y278232D01*
X264856Y278169D01*
X264945Y278102D01*
X265031Y278032D01*
X265114Y277959D01*
X265196Y277884D01*
X265274Y277806D01*
X265349Y277724D01*
X265422Y277641D01*
X265492Y277555D01*
X265559Y277466D01*
X265622Y277375D01*
X265683Y277282D01*
X265740Y277188D01*
X265793Y277091D01*
X265844Y276992D01*
X265891Y276891D01*
X265934Y276789D01*
X265974Y276686D01*
X266010Y276581D01*
X266042Y276475D01*
X266071Y276368D01*
X266096Y276260D01*
X266117Y276151D01*
X266134Y276042D01*
X266148Y275932D01*
X266157Y275821D01*
X266163Y275711D01*
X266165Y275600D01*
X266165Y270520D01*
X266163Y270409D01*
X266157Y270299D01*
X266148Y270188D01*
X266134Y270078D01*
X266117Y269969D01*
X266096Y269860D01*
X266071Y269752D01*
X266042Y269645D01*
X266010Y269539D01*
X265974Y269434D01*
X265934Y269331D01*
X265891Y269229D01*
X265844Y269128D01*
X265793Y269029D01*
X265740Y268932D01*
X265683Y268838D01*
X265622Y268745D01*
X265559Y268654D01*
X265492Y268565D01*
X265422Y268479D01*
X265349Y268396D01*
X265274Y268314D01*
X265196Y268236D01*
X265114Y268161D01*
X265031Y268088D01*
X264945Y268018D01*
X264856Y267951D01*
X264765Y267888D01*
X264672Y267827D01*
X264578Y267770D01*
X264481Y267717D01*
X264382Y267666D01*
X264281Y267619D01*
X264179Y267576D01*
X264076Y267536D01*
X263971Y267500D01*
X263865Y267468D01*
X263758Y267439D01*
X263650Y267414D01*
X263541Y267393D01*
X263432Y267376D01*
X263322Y267362D01*
X263211Y267353D01*
X263101Y267347D01*
X262990Y267345D01*
X259815Y267345D01*
X275119Y278776D02*
X275223Y278774D01*
X275328Y278768D01*
X275432Y278759D01*
X275535Y278746D01*
X275638Y278728D01*
X275740Y278708D01*
X275842Y278683D01*
X275942Y278655D01*
X276042Y278623D01*
X276140Y278587D01*
X276237Y278548D01*
X276332Y278506D01*
X276426Y278460D01*
X276518Y278410D01*
X276608Y278358D01*
X276696Y278302D01*
X276782Y278242D01*
X276866Y278180D01*
X276947Y278115D01*
X277026Y278047D01*
X277103Y277975D01*
X277176Y277902D01*
X277248Y277825D01*
X277316Y277746D01*
X277381Y277665D01*
X277443Y277581D01*
X277503Y277495D01*
X277559Y277407D01*
X277611Y277317D01*
X277661Y277225D01*
X277707Y277131D01*
X277749Y277036D01*
X277788Y276939D01*
X277824Y276841D01*
X277856Y276741D01*
X277884Y276641D01*
X277909Y276539D01*
X277929Y276437D01*
X277947Y276334D01*
X277960Y276231D01*
X277969Y276127D01*
X277975Y276022D01*
X277977Y275918D01*
X275119Y278775D02*
X275001Y278773D01*
X274882Y278767D01*
X274764Y278758D01*
X274647Y278745D01*
X274530Y278727D01*
X274413Y278707D01*
X274297Y278682D01*
X274182Y278654D01*
X274069Y278621D01*
X273956Y278586D01*
X273844Y278546D01*
X273734Y278504D01*
X273625Y278457D01*
X273517Y278407D01*
X273412Y278354D01*
X273308Y278297D01*
X273206Y278237D01*
X273106Y278174D01*
X273008Y278107D01*
X272912Y278038D01*
X272819Y277965D01*
X272728Y277889D01*
X272639Y277811D01*
X272553Y277729D01*
X272470Y277645D01*
X272389Y277559D01*
X272312Y277469D01*
X272237Y277378D01*
X272165Y277284D01*
X272096Y277187D01*
X272031Y277089D01*
X271968Y276988D01*
X271909Y276885D01*
X271853Y276781D01*
X271801Y276675D01*
X271752Y276567D01*
X271707Y276458D01*
X271665Y276347D01*
X271627Y276235D01*
X277024Y273696D02*
X277100Y273771D01*
X277175Y273850D01*
X277246Y273931D01*
X277315Y274015D01*
X277380Y274101D01*
X277442Y274189D01*
X277502Y274279D01*
X277558Y274371D01*
X277611Y274466D01*
X277660Y274562D01*
X277706Y274660D01*
X277749Y274759D01*
X277788Y274860D01*
X277823Y274962D01*
X277855Y275065D01*
X277883Y275169D01*
X277908Y275274D01*
X277929Y275381D01*
X277946Y275487D01*
X277959Y275594D01*
X277968Y275702D01*
X277974Y275810D01*
X277976Y275918D01*
X277024Y273695D02*
X271626Y267345D01*
X277976Y267345D01*
D10*
X162820Y177500D02*
X122180Y177500D01*
X162820Y177500D02*
X162820Y202900D01*
X122180Y202900D01*
X122180Y177500D01*
X136150Y190200D02*
X142500Y190200D01*
X152660Y196550D02*
X152660Y183850D01*
X142500Y190200D01*
X157740Y190200D01*
X152660Y196550D02*
X142500Y190200D01*
X142500Y196550D01*
X142500Y190200D02*
X142500Y183850D01*
D14*
X128530Y190200D03*
D15*
X172345Y190200D03*
X112655Y190200D03*
D16*
X122815Y207345D02*
X122815Y218775D01*
X125990Y218775D01*
X126101Y218773D01*
X126211Y218767D01*
X126322Y218758D01*
X126432Y218744D01*
X126541Y218727D01*
X126650Y218706D01*
X126758Y218681D01*
X126865Y218652D01*
X126971Y218620D01*
X127076Y218584D01*
X127179Y218544D01*
X127281Y218501D01*
X127382Y218454D01*
X127481Y218403D01*
X127578Y218350D01*
X127672Y218293D01*
X127765Y218232D01*
X127856Y218169D01*
X127945Y218102D01*
X128031Y218032D01*
X128114Y217959D01*
X128196Y217884D01*
X128274Y217806D01*
X128349Y217724D01*
X128422Y217641D01*
X128492Y217555D01*
X128559Y217466D01*
X128622Y217375D01*
X128683Y217282D01*
X128740Y217188D01*
X128793Y217091D01*
X128844Y216992D01*
X128891Y216891D01*
X128934Y216789D01*
X128974Y216686D01*
X129010Y216581D01*
X129042Y216475D01*
X129071Y216368D01*
X129096Y216260D01*
X129117Y216151D01*
X129134Y216042D01*
X129148Y215932D01*
X129157Y215821D01*
X129163Y215711D01*
X129165Y215600D01*
X129165Y210520D01*
X129163Y210409D01*
X129157Y210299D01*
X129148Y210188D01*
X129134Y210078D01*
X129117Y209969D01*
X129096Y209860D01*
X129071Y209752D01*
X129042Y209645D01*
X129010Y209539D01*
X128974Y209434D01*
X128934Y209331D01*
X128891Y209229D01*
X128844Y209128D01*
X128793Y209029D01*
X128740Y208932D01*
X128683Y208838D01*
X128622Y208745D01*
X128559Y208654D01*
X128492Y208565D01*
X128422Y208479D01*
X128349Y208396D01*
X128274Y208314D01*
X128196Y208236D01*
X128114Y208161D01*
X128031Y208088D01*
X127945Y208018D01*
X127856Y207951D01*
X127765Y207888D01*
X127672Y207827D01*
X127577Y207770D01*
X127481Y207717D01*
X127382Y207666D01*
X127281Y207619D01*
X127179Y207576D01*
X127076Y207536D01*
X126971Y207500D01*
X126865Y207468D01*
X126758Y207439D01*
X126650Y207414D01*
X126541Y207393D01*
X126432Y207376D01*
X126322Y207362D01*
X126211Y207353D01*
X126101Y207347D01*
X125990Y207345D01*
X122815Y207345D01*
X134626Y207345D02*
X137801Y207345D01*
X137912Y207347D01*
X138022Y207353D01*
X138133Y207362D01*
X138243Y207376D01*
X138352Y207393D01*
X138461Y207414D01*
X138569Y207439D01*
X138676Y207468D01*
X138782Y207500D01*
X138887Y207536D01*
X138990Y207576D01*
X139092Y207619D01*
X139193Y207666D01*
X139292Y207717D01*
X139388Y207770D01*
X139483Y207827D01*
X139576Y207888D01*
X139667Y207951D01*
X139756Y208018D01*
X139842Y208088D01*
X139925Y208161D01*
X140007Y208236D01*
X140085Y208314D01*
X140160Y208396D01*
X140233Y208479D01*
X140303Y208565D01*
X140370Y208654D01*
X140433Y208745D01*
X140494Y208838D01*
X140551Y208932D01*
X140604Y209029D01*
X140655Y209128D01*
X140702Y209229D01*
X140745Y209331D01*
X140785Y209434D01*
X140821Y209539D01*
X140853Y209645D01*
X140882Y209752D01*
X140907Y209860D01*
X140928Y209969D01*
X140945Y210078D01*
X140959Y210188D01*
X140968Y210299D01*
X140974Y210409D01*
X140976Y210520D01*
X140974Y210631D01*
X140968Y210741D01*
X140959Y210852D01*
X140945Y210962D01*
X140928Y211071D01*
X140907Y211180D01*
X140882Y211288D01*
X140853Y211395D01*
X140821Y211501D01*
X140785Y211606D01*
X140745Y211709D01*
X140702Y211811D01*
X140655Y211912D01*
X140604Y212011D01*
X140551Y212107D01*
X140494Y212202D01*
X140433Y212295D01*
X140370Y212386D01*
X140303Y212475D01*
X140233Y212561D01*
X140160Y212644D01*
X140085Y212726D01*
X140007Y212804D01*
X139925Y212879D01*
X139842Y212952D01*
X139756Y213022D01*
X139667Y213089D01*
X139576Y213152D01*
X139483Y213213D01*
X139389Y213270D01*
X139292Y213323D01*
X139193Y213374D01*
X139092Y213421D01*
X138990Y213464D01*
X138887Y213504D01*
X138782Y213540D01*
X138676Y213572D01*
X138569Y213601D01*
X138461Y213626D01*
X138352Y213647D01*
X138243Y213664D01*
X138133Y213678D01*
X138022Y213687D01*
X137912Y213693D01*
X137801Y213695D01*
X138436Y218775D02*
X134626Y218775D01*
X138436Y218775D02*
X138536Y218773D01*
X138635Y218767D01*
X138735Y218757D01*
X138833Y218744D01*
X138932Y218726D01*
X139029Y218705D01*
X139125Y218680D01*
X139221Y218651D01*
X139315Y218618D01*
X139408Y218582D01*
X139499Y218542D01*
X139589Y218498D01*
X139677Y218451D01*
X139763Y218401D01*
X139847Y218347D01*
X139929Y218290D01*
X140008Y218230D01*
X140086Y218166D01*
X140160Y218100D01*
X140232Y218031D01*
X140301Y217959D01*
X140367Y217885D01*
X140431Y217807D01*
X140491Y217728D01*
X140548Y217646D01*
X140602Y217562D01*
X140652Y217476D01*
X140699Y217388D01*
X140743Y217298D01*
X140783Y217207D01*
X140819Y217114D01*
X140852Y217020D01*
X140881Y216924D01*
X140906Y216828D01*
X140927Y216731D01*
X140945Y216632D01*
X140958Y216534D01*
X140968Y216434D01*
X140974Y216335D01*
X140976Y216235D01*
X140974Y216135D01*
X140968Y216036D01*
X140958Y215936D01*
X140945Y215838D01*
X140927Y215739D01*
X140906Y215642D01*
X140881Y215546D01*
X140852Y215450D01*
X140819Y215356D01*
X140783Y215263D01*
X140743Y215172D01*
X140699Y215082D01*
X140652Y214994D01*
X140602Y214908D01*
X140548Y214824D01*
X140491Y214742D01*
X140431Y214663D01*
X140367Y214585D01*
X140301Y214511D01*
X140232Y214439D01*
X140160Y214370D01*
X140086Y214304D01*
X140008Y214240D01*
X139929Y214180D01*
X139847Y214123D01*
X139763Y214069D01*
X139677Y214019D01*
X139589Y213972D01*
X139499Y213928D01*
X139408Y213888D01*
X139315Y213852D01*
X139221Y213819D01*
X139125Y213790D01*
X139029Y213765D01*
X138932Y213744D01*
X138833Y213726D01*
X138735Y213713D01*
X138635Y213703D01*
X138536Y213697D01*
X138436Y213695D01*
X135896Y213695D01*
D10*
X265180Y177500D02*
X305820Y177500D01*
X305820Y202900D01*
X265180Y202900D01*
X265180Y177500D01*
X279150Y190200D02*
X285500Y190200D01*
X295660Y196550D02*
X295660Y183850D01*
X285500Y190200D01*
X300740Y190200D01*
X295660Y196550D02*
X285500Y190200D01*
X285500Y196550D01*
X285500Y190200D02*
X285500Y183850D01*
D14*
X271530Y190200D03*
D15*
X315345Y190200D03*
X255655Y190200D03*
D16*
X265815Y207345D02*
X265815Y218775D01*
X268990Y218775D01*
X269101Y218773D01*
X269211Y218767D01*
X269322Y218758D01*
X269432Y218744D01*
X269541Y218727D01*
X269650Y218706D01*
X269758Y218681D01*
X269865Y218652D01*
X269971Y218620D01*
X270076Y218584D01*
X270179Y218544D01*
X270281Y218501D01*
X270382Y218454D01*
X270481Y218403D01*
X270578Y218350D01*
X270672Y218293D01*
X270765Y218232D01*
X270856Y218169D01*
X270945Y218102D01*
X271031Y218032D01*
X271114Y217959D01*
X271196Y217884D01*
X271274Y217806D01*
X271349Y217724D01*
X271422Y217641D01*
X271492Y217555D01*
X271559Y217466D01*
X271622Y217375D01*
X271683Y217282D01*
X271740Y217188D01*
X271793Y217091D01*
X271844Y216992D01*
X271891Y216891D01*
X271934Y216789D01*
X271974Y216686D01*
X272010Y216581D01*
X272042Y216475D01*
X272071Y216368D01*
X272096Y216260D01*
X272117Y216151D01*
X272134Y216042D01*
X272148Y215932D01*
X272157Y215821D01*
X272163Y215711D01*
X272165Y215600D01*
X272165Y210520D01*
X272163Y210409D01*
X272157Y210299D01*
X272148Y210188D01*
X272134Y210078D01*
X272117Y209969D01*
X272096Y209860D01*
X272071Y209752D01*
X272042Y209645D01*
X272010Y209539D01*
X271974Y209434D01*
X271934Y209331D01*
X271891Y209229D01*
X271844Y209128D01*
X271793Y209029D01*
X271740Y208932D01*
X271683Y208838D01*
X271622Y208745D01*
X271559Y208654D01*
X271492Y208565D01*
X271422Y208479D01*
X271349Y208396D01*
X271274Y208314D01*
X271196Y208236D01*
X271114Y208161D01*
X271031Y208088D01*
X270945Y208018D01*
X270856Y207951D01*
X270765Y207888D01*
X270672Y207827D01*
X270578Y207770D01*
X270481Y207717D01*
X270382Y207666D01*
X270281Y207619D01*
X270179Y207576D01*
X270076Y207536D01*
X269971Y207500D01*
X269865Y207468D01*
X269758Y207439D01*
X269650Y207414D01*
X269541Y207393D01*
X269432Y207376D01*
X269322Y207362D01*
X269211Y207353D01*
X269101Y207347D01*
X268990Y207345D01*
X265815Y207345D01*
X277626Y209885D02*
X280166Y218775D01*
X277626Y209885D02*
X283976Y209885D01*
X282071Y212425D02*
X282071Y207345D01*
D17*
X414860Y524100D02*
X414860Y600300D01*
X445340Y600300D01*
X445340Y524100D01*
X414860Y524100D01*
D16*
X411685Y558583D02*
X406859Y558583D01*
X406859Y560728D01*
X409004Y560728D02*
X409004Y558583D01*
X407931Y563136D02*
X406859Y564476D01*
X411685Y564476D01*
X411685Y563136D02*
X411685Y565817D01*
D10*
X316670Y665200D02*
X212530Y665200D01*
X212530Y823950D02*
X316670Y823950D01*
X316670Y789660D02*
X316670Y665200D01*
X316670Y789660D02*
X307780Y789660D01*
X307780Y804900D01*
X316670Y804900D01*
X316670Y823950D01*
X212530Y789660D02*
X212530Y665200D01*
X212530Y789660D02*
X221420Y789660D01*
X221420Y804900D01*
X212530Y804900D01*
X212530Y823950D01*
D18*
X218880Y671550D02*
X310320Y671550D01*
X310320Y754100D01*
X218880Y754100D01*
X218880Y671550D01*
D10*
X246566Y789660D02*
X246571Y790103D01*
X246588Y790545D01*
X246615Y790987D01*
X246653Y791428D01*
X246702Y791868D01*
X246761Y792306D01*
X246832Y792743D01*
X246913Y793178D01*
X247004Y793611D01*
X247106Y794042D01*
X247219Y794470D01*
X247343Y794895D01*
X247476Y795317D01*
X247620Y795735D01*
X247774Y796150D01*
X247939Y796561D01*
X248113Y796968D01*
X248297Y797371D01*
X248492Y797768D01*
X248695Y798161D01*
X248909Y798549D01*
X249132Y798931D01*
X249364Y799308D01*
X249605Y799679D01*
X249856Y800044D01*
X250115Y800403D01*
X250383Y800755D01*
X250660Y801101D01*
X250944Y801439D01*
X251238Y801771D01*
X251539Y802095D01*
X251848Y802412D01*
X252165Y802721D01*
X252489Y803022D01*
X252821Y803316D01*
X253159Y803600D01*
X253505Y803877D01*
X253857Y804145D01*
X254216Y804404D01*
X254581Y804655D01*
X254952Y804896D01*
X255329Y805128D01*
X255711Y805351D01*
X256099Y805565D01*
X256492Y805768D01*
X256889Y805963D01*
X257292Y806147D01*
X257699Y806321D01*
X258110Y806486D01*
X258525Y806640D01*
X258943Y806784D01*
X259365Y806917D01*
X259790Y807041D01*
X260218Y807154D01*
X260649Y807256D01*
X261082Y807347D01*
X261517Y807428D01*
X261954Y807499D01*
X262392Y807558D01*
X262832Y807607D01*
X263273Y807645D01*
X263715Y807672D01*
X264157Y807689D01*
X264600Y807694D01*
X265043Y807689D01*
X265485Y807672D01*
X265927Y807645D01*
X266368Y807607D01*
X266808Y807558D01*
X267246Y807499D01*
X267683Y807428D01*
X268118Y807347D01*
X268551Y807256D01*
X268982Y807154D01*
X269410Y807041D01*
X269835Y806917D01*
X270257Y806784D01*
X270675Y806640D01*
X271090Y806486D01*
X271501Y806321D01*
X271908Y806147D01*
X272311Y805963D01*
X272708Y805768D01*
X273101Y805565D01*
X273489Y805351D01*
X273871Y805128D01*
X274248Y804896D01*
X274619Y804655D01*
X274984Y804404D01*
X275343Y804145D01*
X275695Y803877D01*
X276041Y803600D01*
X276379Y803316D01*
X276711Y803022D01*
X277035Y802721D01*
X277352Y802412D01*
X277661Y802095D01*
X277962Y801771D01*
X278256Y801439D01*
X278540Y801101D01*
X278817Y800755D01*
X279085Y800403D01*
X279344Y800044D01*
X279595Y799679D01*
X279836Y799308D01*
X280068Y798931D01*
X280291Y798549D01*
X280505Y798161D01*
X280708Y797768D01*
X280903Y797371D01*
X281087Y796968D01*
X281261Y796561D01*
X281426Y796150D01*
X281580Y795735D01*
X281724Y795317D01*
X281857Y794895D01*
X281981Y794470D01*
X282094Y794042D01*
X282196Y793611D01*
X282287Y793178D01*
X282368Y792743D01*
X282439Y792306D01*
X282498Y791868D01*
X282547Y791428D01*
X282585Y790987D01*
X282612Y790545D01*
X282629Y790103D01*
X282634Y789660D01*
X282629Y789217D01*
X282612Y788775D01*
X282585Y788333D01*
X282547Y787892D01*
X282498Y787452D01*
X282439Y787014D01*
X282368Y786577D01*
X282287Y786142D01*
X282196Y785709D01*
X282094Y785278D01*
X281981Y784850D01*
X281857Y784425D01*
X281724Y784003D01*
X281580Y783585D01*
X281426Y783170D01*
X281261Y782759D01*
X281087Y782352D01*
X280903Y781949D01*
X280708Y781552D01*
X280505Y781159D01*
X280291Y780771D01*
X280068Y780389D01*
X279836Y780012D01*
X279595Y779641D01*
X279344Y779276D01*
X279085Y778917D01*
X278817Y778565D01*
X278540Y778219D01*
X278256Y777881D01*
X277962Y777549D01*
X277661Y777225D01*
X277352Y776908D01*
X277035Y776599D01*
X276711Y776298D01*
X276379Y776004D01*
X276041Y775720D01*
X275695Y775443D01*
X275343Y775175D01*
X274984Y774916D01*
X274619Y774665D01*
X274248Y774424D01*
X273871Y774192D01*
X273489Y773969D01*
X273101Y773755D01*
X272708Y773552D01*
X272311Y773357D01*
X271908Y773173D01*
X271501Y772999D01*
X271090Y772834D01*
X270675Y772680D01*
X270257Y772536D01*
X269835Y772403D01*
X269410Y772279D01*
X268982Y772166D01*
X268551Y772064D01*
X268118Y771973D01*
X267683Y771892D01*
X267246Y771821D01*
X266808Y771762D01*
X266368Y771713D01*
X265927Y771675D01*
X265485Y771648D01*
X265043Y771631D01*
X264600Y771626D01*
X264157Y771631D01*
X263715Y771648D01*
X263273Y771675D01*
X262832Y771713D01*
X262392Y771762D01*
X261954Y771821D01*
X261517Y771892D01*
X261082Y771973D01*
X260649Y772064D01*
X260218Y772166D01*
X259790Y772279D01*
X259365Y772403D01*
X258943Y772536D01*
X258525Y772680D01*
X258110Y772834D01*
X257699Y772999D01*
X257292Y773173D01*
X256889Y773357D01*
X256492Y773552D01*
X256099Y773755D01*
X255711Y773969D01*
X255329Y774192D01*
X254952Y774424D01*
X254581Y774665D01*
X254216Y774916D01*
X253857Y775175D01*
X253505Y775443D01*
X253159Y775720D01*
X252821Y776004D01*
X252489Y776298D01*
X252165Y776599D01*
X251848Y776908D01*
X251539Y777225D01*
X251238Y777549D01*
X250944Y777881D01*
X250660Y778219D01*
X250383Y778565D01*
X250115Y778917D01*
X249856Y779276D01*
X249605Y779641D01*
X249364Y780012D01*
X249132Y780389D01*
X248909Y780771D01*
X248695Y781159D01*
X248492Y781552D01*
X248297Y781949D01*
X248113Y782352D01*
X247939Y782759D01*
X247774Y783170D01*
X247620Y783585D01*
X247476Y784003D01*
X247343Y784425D01*
X247219Y784850D01*
X247106Y785278D01*
X247004Y785709D01*
X246913Y786142D01*
X246832Y786577D01*
X246761Y787014D01*
X246702Y787452D01*
X246653Y787892D01*
X246615Y788333D01*
X246588Y788775D01*
X246571Y789217D01*
X246566Y789660D01*
D19*
X290000Y634085D03*
X264600Y634085D03*
X239200Y634085D03*
D20*
X239200Y651230D03*
X264600Y651230D03*
X290000Y651230D03*
D16*
X290635Y758545D02*
X290635Y769975D01*
X289365Y758545D02*
X291905Y758545D01*
X291905Y769975D02*
X289365Y769975D01*
X299107Y758545D02*
X301647Y758545D01*
X299107Y758545D02*
X299007Y758547D01*
X298908Y758553D01*
X298808Y758563D01*
X298710Y758576D01*
X298611Y758594D01*
X298514Y758615D01*
X298418Y758640D01*
X298322Y758669D01*
X298228Y758702D01*
X298135Y758738D01*
X298044Y758778D01*
X297954Y758822D01*
X297866Y758869D01*
X297780Y758919D01*
X297696Y758973D01*
X297614Y759030D01*
X297535Y759090D01*
X297457Y759154D01*
X297383Y759220D01*
X297311Y759289D01*
X297242Y759361D01*
X297176Y759435D01*
X297112Y759513D01*
X297052Y759592D01*
X296995Y759674D01*
X296941Y759758D01*
X296891Y759844D01*
X296844Y759932D01*
X296800Y760022D01*
X296760Y760113D01*
X296724Y760206D01*
X296691Y760300D01*
X296662Y760396D01*
X296637Y760492D01*
X296616Y760589D01*
X296598Y760688D01*
X296585Y760786D01*
X296575Y760886D01*
X296569Y760985D01*
X296567Y761085D01*
X296567Y767435D01*
X296569Y767535D01*
X296575Y767634D01*
X296585Y767734D01*
X296598Y767832D01*
X296616Y767931D01*
X296637Y768028D01*
X296662Y768124D01*
X296691Y768220D01*
X296724Y768314D01*
X296760Y768407D01*
X296800Y768498D01*
X296844Y768588D01*
X296891Y768676D01*
X296941Y768762D01*
X296995Y768846D01*
X297052Y768928D01*
X297112Y769007D01*
X297176Y769085D01*
X297242Y769159D01*
X297311Y769231D01*
X297383Y769300D01*
X297457Y769366D01*
X297535Y769430D01*
X297614Y769490D01*
X297696Y769547D01*
X297780Y769601D01*
X297866Y769651D01*
X297954Y769698D01*
X298044Y769742D01*
X298135Y769782D01*
X298228Y769818D01*
X298322Y769851D01*
X298418Y769880D01*
X298514Y769905D01*
X298611Y769926D01*
X298710Y769944D01*
X298808Y769957D01*
X298908Y769967D01*
X299007Y769973D01*
X299107Y769975D01*
X301647Y769975D01*
X306129Y767435D02*
X309304Y769975D01*
X309304Y758545D01*
X306129Y758545D02*
X312479Y758545D01*
D10*
X386450Y256400D02*
X399150Y256400D01*
X405500Y250050D01*
X405500Y237350D01*
X399150Y231000D01*
X405500Y250050D02*
X411850Y256400D01*
X424550Y256400D01*
X430900Y250050D01*
X430900Y237350D01*
X424550Y231000D01*
X411850Y231000D01*
X405500Y237350D01*
X380100Y237350D02*
X380100Y250050D01*
X386450Y256400D01*
X380100Y237350D02*
X386450Y231000D01*
X399150Y231000D01*
X430900Y250050D02*
X437250Y256400D01*
X449950Y256400D01*
X456300Y250050D01*
X456300Y237350D01*
X449950Y231000D01*
X437250Y231000D01*
X430900Y237350D01*
D16*
X383783Y265163D02*
X383783Y274053D01*
X383783Y265163D02*
X383781Y265063D01*
X383775Y264964D01*
X383765Y264864D01*
X383752Y264766D01*
X383734Y264667D01*
X383713Y264570D01*
X383688Y264474D01*
X383659Y264378D01*
X383626Y264284D01*
X383590Y264191D01*
X383550Y264100D01*
X383506Y264010D01*
X383459Y263922D01*
X383409Y263836D01*
X383355Y263752D01*
X383298Y263670D01*
X383238Y263591D01*
X383174Y263513D01*
X383108Y263439D01*
X383039Y263367D01*
X382967Y263298D01*
X382893Y263232D01*
X382815Y263168D01*
X382736Y263108D01*
X382654Y263051D01*
X382570Y262997D01*
X382484Y262947D01*
X382396Y262900D01*
X382306Y262856D01*
X382215Y262816D01*
X382122Y262780D01*
X382028Y262747D01*
X381932Y262718D01*
X381836Y262693D01*
X381739Y262672D01*
X381640Y262654D01*
X381542Y262641D01*
X381442Y262631D01*
X381343Y262625D01*
X381243Y262623D01*
X379973Y262623D01*
X389763Y262623D02*
X389763Y274053D01*
X392938Y274053D01*
X393049Y274051D01*
X393159Y274045D01*
X393270Y274036D01*
X393380Y274022D01*
X393489Y274005D01*
X393598Y273984D01*
X393706Y273959D01*
X393813Y273930D01*
X393919Y273898D01*
X394024Y273862D01*
X394127Y273822D01*
X394229Y273779D01*
X394330Y273732D01*
X394429Y273681D01*
X394526Y273628D01*
X394620Y273571D01*
X394713Y273510D01*
X394804Y273447D01*
X394893Y273380D01*
X394979Y273310D01*
X395062Y273237D01*
X395144Y273162D01*
X395222Y273084D01*
X395297Y273002D01*
X395370Y272919D01*
X395440Y272833D01*
X395507Y272744D01*
X395570Y272653D01*
X395631Y272560D01*
X395688Y272465D01*
X395741Y272369D01*
X395792Y272270D01*
X395839Y272169D01*
X395882Y272067D01*
X395922Y271964D01*
X395958Y271859D01*
X395990Y271753D01*
X396019Y271646D01*
X396044Y271538D01*
X396065Y271429D01*
X396082Y271320D01*
X396096Y271210D01*
X396105Y271099D01*
X396111Y270989D01*
X396113Y270878D01*
X396111Y270767D01*
X396105Y270657D01*
X396096Y270546D01*
X396082Y270436D01*
X396065Y270327D01*
X396044Y270218D01*
X396019Y270110D01*
X395990Y270003D01*
X395958Y269897D01*
X395922Y269792D01*
X395882Y269689D01*
X395839Y269587D01*
X395792Y269486D01*
X395741Y269387D01*
X395688Y269290D01*
X395631Y269196D01*
X395570Y269103D01*
X395507Y269012D01*
X395440Y268923D01*
X395370Y268837D01*
X395297Y268754D01*
X395222Y268672D01*
X395144Y268594D01*
X395062Y268519D01*
X394979Y268446D01*
X394893Y268376D01*
X394804Y268309D01*
X394713Y268246D01*
X394620Y268185D01*
X394526Y268128D01*
X394429Y268075D01*
X394330Y268024D01*
X394229Y267977D01*
X394127Y267934D01*
X394024Y267894D01*
X393919Y267858D01*
X393813Y267826D01*
X393706Y267797D01*
X393598Y267772D01*
X393489Y267751D01*
X393380Y267734D01*
X393270Y267720D01*
X393159Y267711D01*
X393049Y267705D01*
X392938Y267703D01*
X389763Y267703D01*
X400622Y271513D02*
X403797Y274053D01*
X403797Y262623D01*
X400622Y262623D02*
X406972Y262623D01*
D17*
X415510Y681358D02*
X415510Y718442D01*
X433290Y718442D01*
X433290Y681358D01*
X415510Y681358D01*
D10*
X410938Y682882D02*
X404334Y682882D01*
X410938Y682882D02*
X410938Y685817D01*
X405802Y688954D02*
X404334Y690788D01*
X410938Y690788D01*
X410938Y688954D02*
X410938Y692623D01*
D21*
X424700Y805600D03*
D13*
X411508Y818808D02*
X411508Y830492D01*
X411508Y818808D02*
X416701Y818808D01*
X421414Y818808D02*
X426607Y818808D01*
X421414Y818808D02*
X421414Y830492D01*
X426607Y830492D01*
X425309Y825299D02*
X421414Y825299D01*
X431297Y830492D02*
X431297Y818808D01*
X431297Y830492D02*
X434543Y830492D01*
X434656Y830490D01*
X434769Y830484D01*
X434882Y830474D01*
X434995Y830460D01*
X435107Y830443D01*
X435218Y830421D01*
X435328Y830396D01*
X435438Y830366D01*
X435546Y830333D01*
X435653Y830296D01*
X435759Y830256D01*
X435863Y830211D01*
X435966Y830163D01*
X436067Y830112D01*
X436166Y830057D01*
X436263Y829999D01*
X436358Y829937D01*
X436451Y829872D01*
X436541Y829804D01*
X436629Y829733D01*
X436715Y829658D01*
X436798Y829581D01*
X436878Y829501D01*
X436955Y829418D01*
X437030Y829332D01*
X437101Y829244D01*
X437169Y829154D01*
X437234Y829061D01*
X437296Y828966D01*
X437354Y828869D01*
X437409Y828770D01*
X437460Y828669D01*
X437508Y828566D01*
X437553Y828462D01*
X437593Y828356D01*
X437630Y828249D01*
X437663Y828141D01*
X437693Y828031D01*
X437718Y827921D01*
X437740Y827810D01*
X437757Y827698D01*
X437771Y827585D01*
X437781Y827472D01*
X437787Y827359D01*
X437789Y827246D01*
X437789Y822054D01*
X437787Y821941D01*
X437781Y821828D01*
X437771Y821715D01*
X437757Y821602D01*
X437740Y821490D01*
X437718Y821379D01*
X437693Y821269D01*
X437663Y821159D01*
X437630Y821051D01*
X437593Y820944D01*
X437553Y820838D01*
X437508Y820734D01*
X437460Y820631D01*
X437409Y820530D01*
X437354Y820431D01*
X437296Y820334D01*
X437234Y820239D01*
X437169Y820146D01*
X437101Y820056D01*
X437030Y819968D01*
X436955Y819882D01*
X436878Y819799D01*
X436798Y819719D01*
X436715Y819642D01*
X436629Y819567D01*
X436541Y819496D01*
X436451Y819428D01*
X436358Y819363D01*
X436263Y819301D01*
X436166Y819243D01*
X436067Y819188D01*
X435966Y819137D01*
X435863Y819089D01*
X435759Y819044D01*
X435653Y819004D01*
X435546Y818967D01*
X435438Y818934D01*
X435328Y818904D01*
X435218Y818879D01*
X435107Y818857D01*
X434995Y818840D01*
X434882Y818826D01*
X434769Y818816D01*
X434656Y818810D01*
X434543Y818808D01*
X431297Y818808D01*
D17*
X50300Y523500D02*
X50300Y437500D01*
X50300Y523500D02*
X193300Y523500D01*
X193300Y507500D01*
X193300Y453500D02*
X193300Y437500D01*
X129800Y437500D02*
X50300Y437500D01*
X177300Y437500D02*
X193300Y437500D01*
D13*
X205608Y485789D02*
X217292Y485789D01*
X205608Y485789D02*
X205608Y489034D01*
X205610Y489147D01*
X205616Y489260D01*
X205626Y489373D01*
X205640Y489486D01*
X205657Y489598D01*
X205679Y489709D01*
X205704Y489819D01*
X205734Y489929D01*
X205767Y490037D01*
X205804Y490144D01*
X205844Y490250D01*
X205889Y490354D01*
X205937Y490457D01*
X205988Y490558D01*
X206043Y490657D01*
X206101Y490754D01*
X206163Y490849D01*
X206228Y490942D01*
X206296Y491032D01*
X206367Y491120D01*
X206442Y491206D01*
X206519Y491289D01*
X206599Y491369D01*
X206682Y491446D01*
X206768Y491521D01*
X206856Y491592D01*
X206946Y491660D01*
X207039Y491725D01*
X207134Y491787D01*
X207231Y491845D01*
X207330Y491900D01*
X207431Y491951D01*
X207534Y491999D01*
X207638Y492044D01*
X207744Y492084D01*
X207851Y492121D01*
X207959Y492154D01*
X208069Y492184D01*
X208179Y492209D01*
X208290Y492231D01*
X208402Y492248D01*
X208515Y492262D01*
X208628Y492272D01*
X208741Y492278D01*
X208854Y492280D01*
X208967Y492278D01*
X209080Y492272D01*
X209193Y492262D01*
X209306Y492248D01*
X209418Y492231D01*
X209529Y492209D01*
X209639Y492184D01*
X209749Y492154D01*
X209857Y492121D01*
X209964Y492084D01*
X210070Y492044D01*
X210174Y491999D01*
X210277Y491951D01*
X210378Y491900D01*
X210477Y491845D01*
X210574Y491787D01*
X210669Y491725D01*
X210762Y491660D01*
X210852Y491592D01*
X210940Y491521D01*
X211026Y491446D01*
X211109Y491369D01*
X211189Y491289D01*
X211266Y491206D01*
X211341Y491120D01*
X211412Y491032D01*
X211480Y490942D01*
X211545Y490849D01*
X211607Y490754D01*
X211665Y490657D01*
X211720Y490558D01*
X211771Y490457D01*
X211819Y490354D01*
X211864Y490250D01*
X211904Y490144D01*
X211941Y490037D01*
X211974Y489929D01*
X212004Y489819D01*
X212029Y489709D01*
X212051Y489598D01*
X212068Y489486D01*
X212082Y489373D01*
X212092Y489260D01*
X212098Y489147D01*
X212100Y489034D01*
X212099Y489034D02*
X212099Y485789D01*
X205608Y496245D02*
X217292Y498841D01*
X209503Y501438D01*
X217292Y504034D01*
X205608Y506631D01*
X205608Y511601D02*
X217292Y511601D01*
X205608Y511601D02*
X205608Y514846D01*
X205610Y514959D01*
X205616Y515072D01*
X205626Y515185D01*
X205640Y515298D01*
X205657Y515410D01*
X205679Y515521D01*
X205704Y515631D01*
X205734Y515741D01*
X205767Y515849D01*
X205804Y515956D01*
X205844Y516062D01*
X205889Y516166D01*
X205937Y516269D01*
X205988Y516370D01*
X206043Y516469D01*
X206101Y516566D01*
X206163Y516661D01*
X206228Y516754D01*
X206296Y516844D01*
X206367Y516932D01*
X206442Y517018D01*
X206519Y517101D01*
X206599Y517181D01*
X206682Y517258D01*
X206768Y517333D01*
X206856Y517404D01*
X206946Y517472D01*
X207039Y517537D01*
X207134Y517599D01*
X207231Y517657D01*
X207330Y517712D01*
X207431Y517763D01*
X207534Y517811D01*
X207638Y517856D01*
X207744Y517896D01*
X207851Y517933D01*
X207959Y517966D01*
X208069Y517996D01*
X208179Y518021D01*
X208290Y518043D01*
X208402Y518060D01*
X208515Y518074D01*
X208628Y518084D01*
X208741Y518090D01*
X208854Y518092D01*
X208967Y518090D01*
X209080Y518084D01*
X209193Y518074D01*
X209306Y518060D01*
X209418Y518043D01*
X209529Y518021D01*
X209639Y517996D01*
X209749Y517966D01*
X209857Y517933D01*
X209964Y517896D01*
X210070Y517856D01*
X210174Y517811D01*
X210277Y517763D01*
X210378Y517712D01*
X210477Y517657D01*
X210574Y517599D01*
X210669Y517537D01*
X210762Y517472D01*
X210852Y517404D01*
X210940Y517333D01*
X211026Y517258D01*
X211109Y517181D01*
X211189Y517101D01*
X211266Y517018D01*
X211341Y516932D01*
X211412Y516844D01*
X211480Y516754D01*
X211545Y516661D01*
X211607Y516566D01*
X211665Y516469D01*
X211720Y516370D01*
X211771Y516269D01*
X211819Y516166D01*
X211864Y516062D01*
X211904Y515956D01*
X211941Y515849D01*
X211974Y515741D01*
X212004Y515631D01*
X212029Y515521D01*
X212051Y515410D01*
X212068Y515298D01*
X212082Y515185D01*
X212092Y515072D01*
X212098Y514959D01*
X212100Y514846D01*
X212099Y514846D02*
X212099Y511601D01*
X212099Y515496D02*
X217292Y518092D01*
D17*
X405058Y768790D02*
X442142Y768790D01*
X442142Y751010D01*
X405058Y751010D01*
X405058Y768790D01*
D10*
X406582Y773362D02*
X406582Y779966D01*
X408416Y779966D01*
X408501Y779964D01*
X408585Y779958D01*
X408669Y779948D01*
X408753Y779935D01*
X408836Y779917D01*
X408918Y779896D01*
X408999Y779871D01*
X409079Y779842D01*
X409157Y779810D01*
X409233Y779774D01*
X409308Y779734D01*
X409381Y779691D01*
X409452Y779645D01*
X409521Y779596D01*
X409588Y779543D01*
X409652Y779487D01*
X409713Y779429D01*
X409771Y779368D01*
X409827Y779304D01*
X409880Y779237D01*
X409929Y779168D01*
X409975Y779097D01*
X410018Y779024D01*
X410058Y778949D01*
X410094Y778873D01*
X410126Y778795D01*
X410155Y778715D01*
X410180Y778634D01*
X410201Y778552D01*
X410219Y778469D01*
X410232Y778385D01*
X410242Y778301D01*
X410248Y778217D01*
X410250Y778132D01*
X410248Y778047D01*
X410242Y777963D01*
X410232Y777879D01*
X410219Y777795D01*
X410201Y777712D01*
X410180Y777630D01*
X410155Y777549D01*
X410126Y777469D01*
X410094Y777391D01*
X410058Y777315D01*
X410018Y777240D01*
X409975Y777167D01*
X409929Y777096D01*
X409880Y777027D01*
X409827Y776960D01*
X409771Y776896D01*
X409713Y776835D01*
X409652Y776777D01*
X409588Y776721D01*
X409521Y776668D01*
X409452Y776619D01*
X409381Y776573D01*
X409308Y776530D01*
X409233Y776490D01*
X409157Y776454D01*
X409079Y776422D01*
X408999Y776393D01*
X408918Y776368D01*
X408836Y776347D01*
X408753Y776329D01*
X408669Y776316D01*
X408585Y776306D01*
X408501Y776300D01*
X408416Y776298D01*
X408416Y776297D02*
X406582Y776297D01*
X408783Y776297D02*
X410251Y773362D01*
X413818Y778498D02*
X415653Y779966D01*
X415653Y773362D01*
X417487Y773362D02*
X413818Y773362D01*
X163150Y706800D02*
X74250Y706800D01*
X74250Y605200D02*
X163150Y605200D01*
X74250Y681400D02*
X74250Y706800D01*
X74250Y681400D02*
X67900Y681400D01*
X74250Y630600D02*
X74250Y605200D01*
X74250Y630600D02*
X67900Y630600D01*
X67900Y649650D01*
X163150Y630600D02*
X163150Y605200D01*
X163150Y630600D02*
X169500Y630600D01*
X163150Y681400D02*
X163150Y706800D01*
X163150Y681400D02*
X169500Y681400D01*
X169500Y662350D01*
X169500Y649650D02*
X163150Y649650D01*
X169500Y649650D02*
X169500Y630600D01*
X163150Y649650D02*
X163150Y662350D01*
X169500Y662350D01*
X169500Y649650D01*
X74250Y649650D02*
X67900Y649650D01*
X67900Y662350D01*
X74250Y662350D02*
X74250Y649650D01*
X74250Y662350D02*
X67900Y662350D01*
X67900Y681400D01*
X80600Y687750D02*
X80600Y624250D01*
X156800Y624250D02*
X156800Y687750D01*
X156800Y624250D02*
X152990Y624250D01*
X137750Y636950D02*
X93300Y636950D01*
X137750Y636950D02*
X144100Y636950D01*
X144100Y675050D01*
X137750Y675050D01*
X93300Y675050D01*
X93300Y636950D01*
X84410Y624250D02*
X80600Y624250D01*
X152990Y687750D02*
X156800Y687750D01*
X84410Y687750D02*
X80600Y687750D01*
X118700Y668700D02*
X118700Y643300D01*
X131400Y656000D02*
X106000Y656000D01*
X137750Y636950D02*
X137750Y675050D01*
D16*
X124415Y723945D02*
X124413Y724045D01*
X124407Y724144D01*
X124397Y724244D01*
X124384Y724342D01*
X124366Y724441D01*
X124345Y724538D01*
X124320Y724634D01*
X124291Y724730D01*
X124258Y724824D01*
X124222Y724917D01*
X124182Y725008D01*
X124138Y725098D01*
X124091Y725186D01*
X124041Y725272D01*
X123987Y725356D01*
X123930Y725438D01*
X123870Y725517D01*
X123806Y725595D01*
X123740Y725669D01*
X123671Y725741D01*
X123599Y725810D01*
X123525Y725876D01*
X123447Y725940D01*
X123368Y726000D01*
X123286Y726057D01*
X123202Y726111D01*
X123116Y726161D01*
X123028Y726208D01*
X122938Y726252D01*
X122847Y726292D01*
X122754Y726328D01*
X122660Y726361D01*
X122564Y726390D01*
X122468Y726415D01*
X122371Y726436D01*
X122272Y726454D01*
X122174Y726467D01*
X122074Y726477D01*
X121975Y726483D01*
X121875Y726485D01*
X124415Y723945D02*
X124413Y723804D01*
X124408Y723663D01*
X124398Y723522D01*
X124385Y723381D01*
X124369Y723241D01*
X124348Y723101D01*
X124324Y722962D01*
X124296Y722823D01*
X124265Y722686D01*
X124230Y722549D01*
X124192Y722413D01*
X124150Y722278D01*
X124104Y722145D01*
X124055Y722012D01*
X124002Y721881D01*
X123946Y721752D01*
X123887Y721623D01*
X123824Y721497D01*
X123758Y721372D01*
X123689Y721249D01*
X123616Y721128D01*
X123540Y721009D01*
X123461Y720891D01*
X123380Y720776D01*
X123295Y720664D01*
X123207Y720553D01*
X123116Y720445D01*
X123023Y720339D01*
X122926Y720236D01*
X122827Y720135D01*
X115525Y720453D02*
X115425Y720455D01*
X115326Y720461D01*
X115226Y720471D01*
X115128Y720484D01*
X115029Y720502D01*
X114932Y720523D01*
X114836Y720548D01*
X114740Y720577D01*
X114646Y720610D01*
X114553Y720646D01*
X114462Y720686D01*
X114372Y720730D01*
X114284Y720777D01*
X114198Y720827D01*
X114114Y720881D01*
X114032Y720938D01*
X113953Y720998D01*
X113875Y721062D01*
X113801Y721128D01*
X113729Y721197D01*
X113660Y721269D01*
X113594Y721343D01*
X113530Y721421D01*
X113470Y721500D01*
X113413Y721582D01*
X113359Y721666D01*
X113309Y721752D01*
X113262Y721840D01*
X113218Y721930D01*
X113178Y722021D01*
X113142Y722114D01*
X113109Y722208D01*
X113080Y722304D01*
X113055Y722400D01*
X113034Y722497D01*
X113016Y722596D01*
X113003Y722694D01*
X112993Y722794D01*
X112987Y722893D01*
X112985Y722993D01*
X112987Y723126D01*
X112992Y723259D01*
X113002Y723392D01*
X113015Y723525D01*
X113032Y723657D01*
X113052Y723789D01*
X113076Y723920D01*
X113104Y724050D01*
X113135Y724180D01*
X113170Y724308D01*
X113209Y724436D01*
X113251Y724562D01*
X113297Y724687D01*
X113346Y724811D01*
X113398Y724934D01*
X113454Y725055D01*
X113514Y725174D01*
X113576Y725292D01*
X113642Y725407D01*
X113711Y725521D01*
X113784Y725633D01*
X113859Y725743D01*
X113938Y725851D01*
X117748Y721722D02*
X117696Y721638D01*
X117641Y721555D01*
X117582Y721475D01*
X117521Y721397D01*
X117457Y721322D01*
X117389Y721249D01*
X117319Y721178D01*
X117247Y721111D01*
X117172Y721046D01*
X117094Y720984D01*
X117014Y720925D01*
X116932Y720869D01*
X116848Y720817D01*
X116762Y720768D01*
X116674Y720722D01*
X116584Y720679D01*
X116493Y720640D01*
X116400Y720605D01*
X116306Y720573D01*
X116211Y720545D01*
X116115Y720520D01*
X116018Y720500D01*
X115920Y720482D01*
X115822Y720469D01*
X115723Y720460D01*
X115624Y720454D01*
X115525Y720452D01*
X119652Y725215D02*
X119704Y725299D01*
X119759Y725382D01*
X119818Y725462D01*
X119879Y725540D01*
X119943Y725615D01*
X120011Y725688D01*
X120081Y725759D01*
X120153Y725826D01*
X120228Y725891D01*
X120306Y725953D01*
X120386Y726012D01*
X120468Y726068D01*
X120552Y726120D01*
X120638Y726169D01*
X120726Y726215D01*
X120816Y726258D01*
X120907Y726297D01*
X121000Y726332D01*
X121094Y726364D01*
X121189Y726392D01*
X121285Y726417D01*
X121382Y726437D01*
X121480Y726455D01*
X121578Y726468D01*
X121677Y726477D01*
X121776Y726483D01*
X121875Y726485D01*
X119653Y725215D02*
X117748Y721723D01*
X115525Y731184D02*
X112985Y734359D01*
X124415Y734359D01*
X124415Y731184D02*
X124415Y737534D01*
M02*
