G04 EAGLE Gerber RS-274X export*
G75*
%MOMM*%
%FSLAX34Y34*%
%LPD*%
%INSoldermask Top*%
%IPPOS*%
%AMOC8*
5,1,8,0,0,1.08239X$1,22.5*%
G01*
%ADD10C,2.743200*%
%ADD11P,2.969212X8X22.500000*%
%ADD12R,1.503200X1.703200*%
%ADD13C,1.879600*%
%ADD14C,2.082800*%
%ADD15C,1.879600*%
%ADD16C,3.505200*%
%ADD17C,1.727200*%
%ADD18R,1.503200X1.403200*%
%ADD19R,1.403200X1.403200*%
%ADD20C,2.203200*%
%ADD21R,1.403200X1.503200*%
%ADD22C,1.524000*%


D10*
X256300Y426200D03*
D11*
X307100Y426200D03*
D12*
X432700Y456400D03*
X451700Y456400D03*
X429200Y416400D03*
X448200Y416400D03*
X415700Y366400D03*
X434700Y366400D03*
D13*
X192500Y248600D03*
X90900Y248600D03*
X330300Y250200D03*
X228700Y250200D03*
X193300Y190200D03*
X91700Y190200D03*
X336300Y190200D03*
X234700Y190200D03*
D14*
X430100Y536800D03*
X430100Y587600D03*
D15*
X239200Y631418D02*
X239200Y648182D01*
X264600Y648182D02*
X264600Y631418D01*
X290000Y631418D02*
X290000Y648182D01*
D16*
X264600Y789660D03*
D17*
X392800Y251320D02*
X392800Y236080D01*
X418200Y236080D02*
X418200Y251320D01*
X443600Y251320D02*
X443600Y236080D01*
D18*
X424400Y689740D03*
X424400Y710060D03*
D19*
X434200Y805600D03*
X413200Y805600D03*
D20*
X185300Y490500D02*
X185300Y470500D01*
X124300Y470500D02*
X124300Y490500D01*
X144300Y432500D02*
X164300Y432500D01*
D21*
X413440Y759900D03*
X433760Y759900D03*
D22*
X143592Y632632D02*
X143592Y619424D01*
X93808Y619424D02*
X93808Y632632D01*
X143592Y679368D02*
X143592Y692576D01*
X93808Y692576D02*
X93808Y679368D01*
X118700Y632632D02*
X118700Y619424D01*
X118700Y679368D02*
X118700Y692576D01*
M02*
